<?xml version="1.0" encoding="UTF-8" standalone="no"?>
<svg
   xmlns:dc="http://purl.org/dc/elements/1.1/"
   xmlns:cc="http://creativecommons.org/ns#"
   xmlns:rdf="http://www.w3.org/1999/02/22-rdf-syntax-ns#"
   xmlns:svg="http://www.w3.org/2000/svg"
   xmlns="http://www.w3.org/2000/svg"
   xmlns:sodipodi="http://sodipodi.sourceforge.net/DTD/sodipodi-0.dtd"
   xmlns:inkscape="http://www.inkscape.org/namespaces/inkscape"
   version="1.1"
   x="0px"
   y="0px"
   viewBox="0 0 90.991997 86.685997"
   enable-background="new 0 0 100 100"
   xml:space="preserve"
   id="svg2"
   inkscape:version="0.91 r13725"
   sodipodi:docname="bath.svg"
   width="90.991997"
   height="86.685997"><metadata
     id="metadata40"><rdf:RDF><cc:Work
         rdf:about=""><dc:format>image/svg+xml</dc:format><dc:type
           rdf:resource="http://purl.org/dc/dcmitype/StillImage" /><dc:title /></cc:Work></rdf:RDF></metadata><defs
     id="defs38" /><sodipodi:namedview
     pagecolor="#ffffff"
     bordercolor="#666666"
     borderopacity="1"
     objecttolerance="10"
     gridtolerance="10"
     guidetolerance="10"
     inkscape:pageopacity="0"
     inkscape:pageshadow="2"
     inkscape:window-width="1440"
     inkscape:window-height="776"
     id="namedview36"
     showgrid="false"
     fit-margin-top="0"
     fit-margin-left="0"
     fit-margin-right="0"
     fit-margin-bottom="0"
     inkscape:zoom="3.776"
     inkscape:cx="27.936509"
     inkscape:cy="64.290732"
     inkscape:window-x="0"
     inkscape:window-y="0"
     inkscape:window-maximized="1"
     inkscape:current-layer="g8" /><g
     display="none"
     id="g4"
     style="display:none"
     transform="translate(-4.504,-6.657)"><rect
       x="-986.28198"
       y="-541.80902"
       display="inline"
       width="1230"
       height="1241.809"
       id="rect6"
       style="display:inline;fill:#000000" /></g><g
     id="g8"
     transform="translate(-4.504,-6.657)"><path
       d="m 32.347,42.566 2.378,0.076 c 10e-4,-0.026 0.005,-0.05 0.006,-0.076 0.324,-8.953 7.575,-15.955 16.546,-15.955 8.971,0 16.222,7.003 16.545,15.955 10e-4,0.026 0.005,0.05 0.006,0.076 l 2.378,-0.076 0.006,0 2.383,-0.076 C 72.251,31.612 63.964,22.951 53.354,21.942 l 0,-3.062 c 0,-3.548 -2.886,-6.434 -6.434,-6.434 -3.548,0 -6.434,2.886 -6.434,6.434 l 0,1.648 4.77,0 0,-1.648 c 0,-0.917 0.747,-1.664 1.664,-1.664 0.917,0 1.664,0.747 1.664,1.664 l 0,3.147 C 38.274,23.308 30.295,31.825 29.957,42.49 l 2.384,0.076 0.006,0 z"
       id="path18"
       style="fill:#ffffff"
       inkscape:connector-curvature="0" /><path
       d="m 55.376,41.264 c 0,1.44 1.172,2.611 2.611,2.611 1.44,0 2.612,-1.171 2.612,-2.611 0,-1.44 -1.172,-2.612 -2.612,-2.612 -1.439,0 -2.611,1.172 -2.611,2.612 z"
       id="path20"
       style="fill:#ffffff"
       inkscape:connector-curvature="0" /><path
       d="m 41.953,41.264 c 0,1.44 1.172,2.611 2.611,2.611 1.44,0 2.612,-1.171 2.612,-2.611 0,-1.44 -1.172,-2.612 -2.612,-2.612 -1.439,0 -2.611,1.172 -2.611,2.612 z"
       id="path22"
       style="fill:#ffffff"
       inkscape:connector-curvature="0" /><path
       d="m 75.62,18.627 c 3.3,0 5.984,-2.685 5.984,-5.985 0,-3.3 -2.684,-5.985 -5.984,-5.985 -3.301,0 -5.985,2.685 -5.985,5.985 0,3.3 2.684,5.985 5.985,5.985 z m 0,-8.305 c 1.279,0 2.32,1.041 2.32,2.32 0,1.279 -1.041,2.32 -2.32,2.32 -1.279,0 -2.321,-1.041 -2.321,-2.32 0,-1.279 1.042,-2.32 2.321,-2.32 z"
       id="path24"
       style="fill:#ffffff"
       inkscape:connector-curvature="0" /><path
       d="m 76.527,30.661 c 0,4.449 3.62,8.068 8.068,8.068 4.449,0 8.069,-3.619 8.069,-8.068 0,-4.449 -3.62,-8.069 -8.069,-8.069 -4.448,0 -8.068,3.62 -8.068,8.069 z m 8.069,-3.431 c 1.892,0 3.431,1.539 3.431,3.431 0,1.892 -1.539,3.431 -3.431,3.431 -1.892,0 -3.43,-1.539 -3.43,-3.431 0,-1.892 1.538,-3.431 3.43,-3.431 z"
       id="path26"
       style="fill:#ffffff"
       inkscape:connector-curvature="0" /><path
       d="m 85.684,64.006 0,3.408 c 0,11.627 -9.46,21.087 -21.088,21.087 l -26.64,0 c -11.627,0 -21.087,-9.46 -21.087,-21.087 l 0,-3.408 -3.321,0 c -0.519,0 -1.025,-0.054 -1.521,-0.138 l 0,3.546 c 0,14.297 11.632,25.929 25.929,25.929 l 26.64,0 c 14.298,0 25.93,-11.632 25.93,-25.929 l 0,-4.388 c -1.226,0.622 -2.607,0.98 -4.073,0.98 l -0.769,0 z"
       id="path28"
       style="fill:#ffffff"
       inkscape:connector-curvature="0" /><path
       d="m 86.452,45.918 -72.904,0 c -4.986,0 -9.044,4.057 -9.044,9.044 0,4.468 3.26,8.179 7.523,8.906 0.495,0.084 1.001,0.138 1.521,0.138 l 3.321,0 68.814,0 0.769,0 c 1.466,0 2.847,-0.358 4.073,-0.98 2.944,-1.493 4.971,-4.543 4.971,-8.064 0,-4.987 -4.058,-9.044 -9.044,-9.044 z m 0,12.64 -72.904,0 c -1.982,0 -3.595,-1.613 -3.595,-3.596 0,-1.983 1.612,-3.596 3.595,-3.596 l 72.904,0 c 1.982,0 3.595,1.613 3.595,3.596 0,1.983 -1.612,3.596 -3.595,3.596 z"
       id="path30"
       style="fill:#ffffff"
       inkscape:connector-curvature="0" /></g></svg>