<?xml version="1.0" encoding="UTF-8" standalone="no"?>
<svg
   xmlns:dc="http://purl.org/dc/elements/1.1/"
   xmlns:cc="http://creativecommons.org/ns#"
   xmlns:rdf="http://www.w3.org/1999/02/22-rdf-syntax-ns#"
   xmlns:svg="http://www.w3.org/2000/svg"
   xmlns="http://www.w3.org/2000/svg"
   xmlns:sodipodi="http://sodipodi.sourceforge.net/DTD/sodipodi-0.dtd"
   xmlns:inkscape="http://www.inkscape.org/namespaces/inkscape"
   version="1.1"
   x="0px"
   y="0px"
   viewBox="0 0 46.533001 90"
   enable-background="new 0 0 100 100"
   xml:space="preserve"
   id="svg2"
   inkscape:version="0.91 r13725"
   sodipodi:docname="noun_baby bottle_850088.svg"
   width="46.533001"
   height="90"><metadata
     id="metadata22"><rdf:RDF><cc:Work
         rdf:about=""><dc:format>image/svg+xml</dc:format><dc:type
           rdf:resource="http://purl.org/dc/dcmitype/StillImage" /><dc:title></dc:title></cc:Work></rdf:RDF></metadata><defs
     id="defs20" /><sodipodi:namedview
     pagecolor="#ffffff"
     bordercolor="#666666"
     borderopacity="1"
     objecttolerance="10"
     gridtolerance="10"
     guidetolerance="10"
     inkscape:pageopacity="0"
     inkscape:pageshadow="2"
     inkscape:window-width="640"
     inkscape:window-height="480"
     id="namedview18"
     showgrid="false"
     inkscape:zoom="1.888"
     inkscape:cx="23.266"
     inkscape:cy="32.5"
     inkscape:window-x="0"
     inkscape:window-y="0"
     inkscape:window-maximized="0"
     inkscape:current-layer="g10"
     fit-margin-top="0"
     fit-margin-left="0"
     fit-margin-right="0"
     fit-margin-bottom="0" /><g
     display="none"
     id="g4"
     style="display:none"
     transform="translate(-26.734,-5)"><rect
       x="-506.28201"
       y="-301.80899"
       display="inline"
       width="1230"
       height="692.21802"
       id="rect6"
       style="display:inline;fill:#000000" /></g><g
     id="g8"
     transform="translate(-26.734,-5)"><g
       id="g10"><path
         d="m 73.267,35.677 0,-3.677 c 0,-3.255 -2.638,-5.904 -5.888,-5.926 -0.97,-4.499 -4.509,-8.308 -9.529,-10.295 l 0,-3.354 C 57.85,8.331 54.519,5 50.425,5 l -0.849,0 c -4.094,0 -7.425,3.331 -7.425,7.425 l 0,3.354 c -5.019,1.987 -8.559,5.797 -9.529,10.295 -3.25,0.022 -5.888,2.67 -5.888,5.926 l 0,3.677 c 0,2.121 1.123,3.98 2.803,5.028 -1.428,2.099 -2.265,4.631 -2.265,7.355 l 0,33.83 c 0,7.229 5.881,13.11 13.11,13.11 l 19.238,0 c 7.229,0 13.11,-5.881 13.11,-13.11 l 0,-33.83 c 0,-2.724 -0.837,-5.256 -2.265,-7.355 1.679,-1.048 2.802,-2.907 2.802,-5.028 z m -26.374,-16.34 0,-6.912 c 0,-1.476 1.207,-2.683 2.683,-2.683 l 0.849,0 c 1.476,0 2.683,1.207 2.683,2.683 l 0,6.912 c 4.533,0.833 8.127,3.419 9.351,6.736 l -24.917,0 c 1.224,-3.317 4.817,-5.903 9.351,-6.736 z M 67.987,81.89 c 0,4.602 -3.765,8.367 -8.367,8.367 l -19.239,0 c -4.602,0 -8.367,-3.765 -8.367,-8.367 l 0,-3.897 8.07,0 0,-4.742 -8.07,0 0,-5.905 8.07,0 0,-4.742 -8.07,0 0,-5.905 8.07,0 0,-4.742 -8.07,0 0,-3.897 c 0,-2.591 1.194,-4.917 3.059,-6.455 l 29.856,0 c 1.865,1.538 3.059,3.864 3.059,6.455 l 0,33.83 z m 0.538,-46.213 c 0,0.643 -0.543,1.186 -1.186,1.186 l -34.678,0 c -0.643,0 -1.186,-0.543 -1.186,-1.186 l 0,-3.677 c 0,-0.643 0.543,-1.186 1.186,-1.186 l 34.678,0 c 0.643,0 1.186,0.543 1.186,1.186 l 0,3.677 z"
         id="path12"
         style="fill:#ffffff"
         inkscape:connector-curvature="0" /></g></g></svg>