<?xml version="1.0" encoding="UTF-8" standalone="no"?>
<svg
   xmlns:dc="http://purl.org/dc/elements/1.1/"
   xmlns:cc="http://creativecommons.org/ns#"
   xmlns:rdf="http://www.w3.org/1999/02/22-rdf-syntax-ns#"
   xmlns:svg="http://www.w3.org/2000/svg"
   xmlns="http://www.w3.org/2000/svg"
   xmlns:sodipodi="http://sodipodi.sourceforge.net/DTD/sodipodi-0.dtd"
   xmlns:inkscape="http://www.inkscape.org/namespaces/inkscape"
   version="1.1"
   x="0px"
   y="0px"
   viewBox="0 0 139.69679 84.830879"
   xml:space="preserve"
   id="svg2"
   inkscape:version="0.91 r13725"
   sodipodi:docname="br_r.svg"
   width="139.69679"
   height="84.830879"><metadata
     id="metadata18"><rdf:RDF><cc:Work
         rdf:about=""><dc:format>image/svg+xml</dc:format><dc:type
           rdf:resource="http://purl.org/dc/dcmitype/StillImage" /><dc:title></dc:title></cc:Work></rdf:RDF></metadata><defs
     id="defs16" /><sodipodi:namedview
     pagecolor="#ffffff"
     bordercolor="#666666"
     borderopacity="1"
     objecttolerance="10"
     gridtolerance="10"
     guidetolerance="10"
     inkscape:pageopacity="0"
     inkscape:pageshadow="2"
     inkscape:window-width="1280"
     inkscape:window-height="685"
     id="namedview14"
     showgrid="false"
     fit-margin-top="0"
     fit-margin-left="0"
     fit-margin-right="0"
     fit-margin-bottom="0"
     inkscape:zoom="2.7812867"
     inkscape:cx="-35.485603"
     inkscape:cy="74.176271"
     inkscape:window-x="0"
     inkscape:window-y="1"
     inkscape:window-maximized="1"
     inkscape:current-layer="g6" /><g
     id="g4"
     transform="matrix(3.75,0,0,3.75,-34.736108,-3.52125)"><g
       id="g6"><path
         d="m 36.918459,1.4422044 c -0.75587,0.9455438 -7.38883,9.3421976 -7.38883,13.6254526 0,4.682426 3.810484,8.492911 8.492908,8.492911 4.682424,0 8.492906,-3.810485 8.492906,-8.492911 0,-4.283255 -6.632959,-12.6827387 -7.388828,-13.6254526 -0.535053,-0.67093991 -1.673104,-0.67093991 -2.208156,0 z"
         id="path8"
         inkscape:connector-curvature="0"
         style="fill:#9f78ff;fill-opacity:1;stroke:none;stroke-width:1.35886526;stroke-linecap:round;stroke-linejoin:round;stroke-miterlimit:4;stroke-dasharray:none;stroke-opacity:1"
         sodipodi:nodetypes="cssscc" /><path
         sodipodi:nodetypes="csssccsscss"
         style="fill:#9f78ff;fill-opacity:0.50196078;stroke:none;stroke-width:1.35886526;stroke-linecap:round;stroke-linejoin:round;stroke-miterlimit:4;stroke-dasharray:none;stroke-opacity:1"
         inkscape:connector-curvature="0"
         id="path3343"
         d="m 16.651792,1.4422049 c -0.75587,0.9455438 -7.38883,9.3421981 -7.38883,13.6254531 0,4.682425 3.810484,8.49291 8.492908,8.49291 4.682424,0 8.492906,-3.810485 8.492906,-8.49291 0,-4.283255 -6.632959,-12.6827392 -7.388828,-13.6254531 -0.535053,-0.67093986 -1.673104,-0.67093986 -2.208156,0 z M 17.75587,20.729599 c -3.122561,0 -5.661939,-2.53938 -5.661939,-5.661941 0,-2.157196 3.125391,-7.0406192 5.661939,-10.4264583 2.536547,3.3858391 5.661937,8.2692623 5.661937,10.4264583 0,3.122561 -2.539377,5.661941 -5.661937,5.661941 z" /></g></g></svg>