<?xml version="1.0" encoding="UTF-8" standalone="no"?>
<svg
   xmlns:dc="http://purl.org/dc/elements/1.1/"
   xmlns:cc="http://creativecommons.org/ns#"
   xmlns:rdf="http://www.w3.org/1999/02/22-rdf-syntax-ns#"
   xmlns:svg="http://www.w3.org/2000/svg"
   xmlns="http://www.w3.org/2000/svg"
   xmlns:sodipodi="http://sodipodi.sourceforge.net/DTD/sodipodi-0.dtd"
   xmlns:inkscape="http://www.inkscape.org/namespaces/inkscape"
   version="1.1"
   x="0px"
   y="0px"
   viewBox="0 0 86.783997 90"
   enable-background="new 0 0 100 100"
   xml:space="preserve"
   id="svg2"
   inkscape:version="0.91 r13725"
   sodipodi:docname="noun_Crying Baby_853771.svg"
   width="86.783997"
   height="90"><metadata
     id="metadata42"><rdf:RDF><cc:Work
         rdf:about=""><dc:format>image/svg+xml</dc:format><dc:type
           rdf:resource="http://purl.org/dc/dcmitype/StillImage" /><dc:title></dc:title></cc:Work></rdf:RDF></metadata><defs
     id="defs40" /><sodipodi:namedview
     pagecolor="#ffffff"
     bordercolor="#666666"
     borderopacity="1"
     objecttolerance="10"
     gridtolerance="10"
     guidetolerance="10"
     inkscape:pageopacity="0"
     inkscape:pageshadow="2"
     inkscape:window-width="1440"
     inkscape:window-height="776"
     id="namedview38"
     showgrid="false"
     fit-margin-top="0"
     fit-margin-left="0"
     fit-margin-right="0"
     fit-margin-bottom="0"
     inkscape:zoom="3.776"
     inkscape:cx="-7.9996214"
     inkscape:cy="52.837378"
     inkscape:window-x="0"
     inkscape:window-y="0"
     inkscape:window-maximized="1"
     inkscape:current-layer="g8" /><g
     display="none"
     id="g4"
     style="display:none"
     transform="translate(-6.608,-5)"><rect
       x="-866.28198"
       y="-421.80899"
       display="inline"
       width="1230"
       height="1241.809"
       id="rect6"
       style="display:inline;fill:#000000" /></g><g
     id="g8"
     transform="translate(-6.608,-5)"><path
       d="m 52.358,45.123 c 4.053,-0.043 8.096,-1.165 11.637,-3.08 -4.029,-2.631 -8.835,-4.168 -13.996,-4.168 -3.266,0 -6.389,0.62 -9.265,1.737 0.002,0.005 0.006,0.009 0.008,0.015 1.648,3.864 7.057,5.529 11.616,5.496 z"
       id="path10"
       inkscape:connector-curvature="0"
       style="fill:none" /><path
       d="m 80.896,57.657 c 0.363,1.908 0.561,3.875 0.561,5.887 0,3.626 -0.624,7.108 -1.759,10.352 4.385,-0.155 7.907,-3.761 7.907,-8.183 -0.001,-4.012 -2.898,-7.353 -6.709,-8.056 z"
       id="path12"
       inkscape:connector-curvature="0"
       style="fill:none" /><path
       d="m 52.408,49.769 c -0.078,0.001 -0.156,0.002 -0.234,0.002 -5.592,0 -12.887,-2.121 -15.594,-8.096 -7.342,4.522 -12.248,12.632 -12.248,21.869 0,14.154 11.514,25.669 25.668,25.669 14.154,0 25.669,-11.515 25.669,-25.669 0,-7.194 -2.979,-13.703 -7.763,-18.368 -4.555,2.863 -9.965,4.534 -15.498,4.593 z m -17.246,8.354 0,0 -1.934,0 c -1.146,0 -1.912,-1.205 -1.405,-2.232 0.826,-1.676 2.553,-2.831 4.544,-2.831 1.991,0 3.718,1.155 4.544,2.831 0.507,1.028 -0.259,2.232 -1.405,2.232 l -1.934,0 0,0 c 0,-0.665 -0.541,-1.206 -1.206,-1.206 -0.663,0 -1.204,0.541 -1.204,1.206 z m 22.048,16.647 -15.226,0 c -3.368,0 -6.123,-2.755 -6.123,-6.123 0,-3.368 2.755,-6.123 6.123,-6.123 l 15.226,0 c 3.368,0 6.123,2.755 6.123,6.123 0,3.367 -2.755,6.123 -6.123,6.123 z m 8.756,-16.647 -1.934,0 0,0 c 0,-0.665 -0.541,-1.206 -1.206,-1.206 -0.665,0 -1.206,0.541 -1.206,1.206 l 0,0 -1.934,0 c -1.146,0 -1.912,-1.205 -1.405,-2.232 0.826,-1.676 2.553,-2.831 4.544,-2.831 1.991,0 3.718,1.155 4.544,2.831 0.509,1.027 -0.257,2.232 -1.403,2.232 z"
       id="path14"
       inkscape:connector-curvature="0"
       style="fill:none" /><path
       d="m 19.105,57.657 c -3.811,0.703 -6.709,4.044 -6.709,8.056 0,4.423 3.522,8.028 7.907,8.183 -1.134,-3.244 -1.758,-6.726 -1.758,-10.352 -0.001,-2.013 0.197,-3.979 0.56,-5.887 z"
       id="path16"
       inkscape:connector-curvature="0"
       style="fill:none" /><path
       d="m 49.594,65.791 c -2.629,0 -4.8,2.17 -5.125,4.978 -0.045,0.386 0.239,0.733 0.628,0.733 l 8.997,0 c 0.363,0 0.67,-0.305 0.632,-0.666 -0.298,-2.84 -2.482,-5.045 -5.132,-5.045 z"
       id="path18"
       inkscape:connector-curvature="0"
       style="fill:none" /><path
       d="m 79.407,51.727 c -0.087,0 -0.171,0.011 -0.257,0.013 -1.548,-3.809 -3.82,-7.247 -6.647,-10.145 1.685,-1.618 3.155,-3.435 4.341,-5.423 0.657,-1.102 0.297,-2.529 -0.805,-3.186 -1.102,-0.658 -2.529,-0.297 -3.186,0.805 -1.027,1.723 -2.34,3.3 -3.858,4.7 C 63.712,34.477 57.131,32.088 50,32.088 c -13.171,0 -24.471,8.141 -29.149,19.652 -0.086,-0.002 -0.17,-0.013 -0.257,-0.013 -7.712,0 -13.986,6.274 -13.986,13.985 0,7.712 6.274,13.986 13.986,13.986 0.788,0 1.556,-0.081 2.309,-0.207 C 28.38,88.763 38.473,95 50,95 c 11.527,0 21.62,-6.237 27.098,-15.509 0.753,0.126 1.521,0.207 2.309,0.207 7.711,0 13.985,-6.274 13.985,-13.986 0,-7.711 -6.274,-13.985 -13.985,-13.985 z M 12.396,65.712 c 0,-4.011 2.898,-7.353 6.709,-8.056 -0.363,1.908 -0.561,3.875 -0.561,5.887 0,3.626 0.624,7.108 1.758,10.352 -4.384,-0.154 -7.906,-3.76 -7.906,-8.183 z M 50,37.876 c 5.161,0 9.967,1.536 13.996,4.168 -3.541,1.915 -7.584,3.036 -11.637,3.08 -4.56,0.033 -9.969,-1.632 -11.615,-5.495 -0.002,-0.005 -0.006,-0.009 -0.008,-0.015 2.875,-1.119 5.998,-1.738 9.264,-1.738 z m 0,51.336 c -14.154,0 -25.668,-11.515 -25.668,-25.669 0,-9.237 4.906,-17.348 12.248,-21.869 2.708,5.975 10.003,8.096 15.594,8.096 0.079,0 0.157,-0.001 0.234,-0.002 5.533,-0.059 10.943,-1.73 15.497,-4.593 4.784,4.665 7.763,11.173 7.763,18.368 C 75.669,77.697 64.154,89.212 50,89.212 Z M 79.698,73.896 c 1.134,-3.244 1.759,-6.726 1.759,-10.352 0,-2.012 -0.198,-3.979 -0.561,-5.887 3.811,0.703 6.709,4.044 6.709,8.056 -0.001,4.422 -3.522,8.028 -7.907,8.183 z"
       id="path20"
       inkscape:connector-curvature="0"
       style="fill:#888888;fill-opacity:1" /><path
       d="m 37.574,58.123 0,0 1.934,0 c 1.146,0 1.912,-1.205 1.405,-2.232 -0.826,-1.676 -2.553,-2.831 -4.544,-2.831 -1.991,0 -3.718,1.155 -4.544,2.831 -0.507,1.028 0.259,2.232 1.405,2.232 l 1.934,0 0,0 c 0,-0.665 0.541,-1.206 1.206,-1.206 0.663,0 1.204,0.541 1.204,1.206 z"
       id="path22"
       inkscape:connector-curvature="0"
       style="fill:#888888;fill-opacity:1" /><path
       d="m 62.827,53.059 c -1.991,0 -3.718,1.155 -4.544,2.831 -0.507,1.028 0.259,2.232 1.405,2.232 l 1.934,0 0,0 c 0,-0.665 0.541,-1.206 1.206,-1.206 0.665,0 1.206,0.541 1.206,1.206 l 0,0 1.934,0 c 1.146,0 1.912,-1.205 1.405,-2.232 -0.828,-1.675 -2.555,-2.831 -4.546,-2.831 z"
       id="path24"
       inkscape:connector-curvature="0"
       style="fill:#888888;fill-opacity:1" /><path
       d="m 20.749,24.385 c 0.662,1.06 1.8,1.642 2.963,1.642 0.632,0 1.271,-0.172 1.846,-0.531 1.635,-1.021 2.132,-3.175 1.11,-4.81 L 22.93,14.704 c -1.022,-1.636 -3.175,-2.132 -4.81,-1.11 -1.635,1.021 -2.132,3.175 -1.11,4.81 l 3.739,5.981 z"
       id="path26"
       inkscape:connector-curvature="0"
       style="fill:#888888;fill-opacity:1" /><path
       d="m 73.684,27.597 c 0.629,0.474 1.367,0.703 2.098,0.703 1.059,0 2.105,-0.48 2.79,-1.39 l 4.245,-5.633 c 1.16,-1.54 0.853,-3.728 -0.687,-4.888 -1.538,-1.159 -3.728,-0.852 -4.888,0.687 l -4.245,5.633 c -1.161,1.539 -0.853,3.727 0.687,4.888 z"
       id="path28"
       inkscape:connector-curvature="0"
       style="fill:#888888;fill-opacity:1" /><path
       d="m 49.873,19.035 c 1.928,0 3.491,-1.563 3.491,-3.491 l 0,-7.053 C 53.364,6.563 51.801,5 49.873,5 47.945,5 46.382,6.563 46.382,8.491 l 0,7.054 c 0,1.927 1.564,3.49 3.491,3.49 z"
       id="path30"
       inkscape:connector-curvature="0"
       style="fill:#888888;fill-opacity:1" /><path
       d="m 57.21,62.523 -15.226,0 c -3.368,0 -6.123,2.755 -6.123,6.123 0,3.368 2.755,6.123 6.123,6.123 l 15.226,0 c 3.368,0 6.123,-2.755 6.123,-6.123 0,-3.367 -2.755,-6.123 -6.123,-6.123 z m -3.115,8.979 -8.997,0 c -0.389,0 -0.673,-0.346 -0.628,-0.733 0.326,-2.808 2.496,-4.978 5.125,-4.978 2.65,0 4.834,2.205 5.133,5.045 0.037,0.361 -0.271,0.666 -0.633,0.666 z"
       id="path32"
       inkscape:connector-curvature="0"
       style="fill:#888888;fill-opacity:1" /></g></svg>