<?xml version="1.0" encoding="UTF-8" standalone="no"?>
<!-- Created with Inkscape (http://www.inkscape.org/) -->

<svg
   xmlns:dc="http://purl.org/dc/elements/1.1/"
   xmlns:cc="http://creativecommons.org/ns#"
   xmlns:rdf="http://www.w3.org/1999/02/22-rdf-syntax-ns#"
   xmlns:svg="http://www.w3.org/2000/svg"
   xmlns="http://www.w3.org/2000/svg"
   xmlns:xlink="http://www.w3.org/1999/xlink"
   xmlns:sodipodi="http://sodipodi.sourceforge.net/DTD/sodipodi-0.dtd"
   xmlns:inkscape="http://www.inkscape.org/namespaces/inkscape"
   width="242.53473mm"
   height="242.53473mm"
   viewBox="0 0 859.37502 859.37502"
   id="svg3350"
   version="1.1"
   inkscape:version="0.91 r13725"
   sodipodi:docname="favicon.svg"
   inkscape:export-filename="/Users/baptiste/Documents/Sources/romylog/romy/romy/static/img/favicon32.png"
   inkscape:export-xdpi="3.3512728"
   inkscape:export-ydpi="3.3512728">
  <defs
     id="defs3352">
    <linearGradient
       id="linearGradient4377"
       inkscape:collect="always">
      <stop
         id="stop4148"
         offset="0"
         style="stop-color:#85a6f3;stop-opacity:1" />
      <stop
         id="stop4150"
         offset="1"
         style="stop-color:#d7b9f1;stop-opacity:1" />
    </linearGradient>
    <linearGradient
       inkscape:collect="always"
       xlink:href="#linearGradient4377"
       id="linearGradient4189"
       x1="-33.883743"
       y1="449.71451"
       x2="825.49127"
       y2="449.71451"
       gradientUnits="userSpaceOnUse" />
  </defs>
  <sodipodi:namedview
     id="base"
     pagecolor="#ffffff"
     bordercolor="#666666"
     borderopacity="1.0"
     inkscape:pageopacity="0.0"
     inkscape:pageshadow="2"
     inkscape:zoom="0.45254834"
     inkscape:cx="104.99533"
     inkscape:cy="382.20398"
     inkscape:document-units="px"
     inkscape:current-layer="layer1"
     showgrid="false"
     showguides="false"
     inkscape:window-width="1440"
     inkscape:window-height="776"
     inkscape:window-x="0"
     inkscape:window-y="0"
     inkscape:window-maximized="0"
     fit-margin-top="0"
     fit-margin-left="0"
     fit-margin-right="0"
     fit-margin-bottom="0" />
  <metadata
     id="metadata3355">
    <rdf:RDF>
      <cc:Work
         rdf:about="">
        <dc:format>image/svg+xml</dc:format>
        <dc:type
           rdf:resource="http://purl.org/dc/dcmitype/StillImage" />
        <dc:title></dc:title>
      </cc:Work>
    </rdf:RDF>
  </metadata>
  <g
     inkscape:label="Calque 1"
     inkscape:groupmode="layer"
     id="layer1"
     transform="translate(33.883743,-20.027018)">
    <rect
       style="opacity:1;fill:url(#linearGradient4189);fill-opacity:1;stroke:none;stroke-width:86.31500244;stroke-linecap:round;stroke-linejoin:round;stroke-miterlimit:1.5;stroke-dasharray:none;stroke-opacity:1"
       id="rect4154"
       width="859.375"
       height="859.375"
       x="-33.883743"
       y="20.027018"
       rx="100"
       ry="100" />
    <path
       inkscape:connector-curvature="0"
       style="fill:#ffffff"
       id="path4"
       d="m 443.80414,656.64198 c 0,26.52025 -21.47857,48.02456 -48.01169,48.02456 -26.52026,0 -47.99883,-21.49144 -47.99883,-48.02456 0,-26.52026 21.49144,-47.99883 47.99883,-47.99883 26.52025,0 48.01169,21.47857 48.01169,47.99883 z M 271.2167,393.25288 c -19.76801,0 -35.76763,16.01247 -35.76763,35.76761 0,19.76801 16.01247,35.76763 35.76763,35.76763 19.78086,0 35.75476,-15.99962 35.75476,-35.76763 0,-19.76801 -15.9739,-35.76761 -35.75476,-35.76761 z m 249.15151,0 c -19.76801,0 -35.75476,16.01247 -35.75476,35.76761 0,19.76801 15.98675,35.76763 35.75476,35.76763 19.76801,0 35.78048,-15.99962 35.78048,-35.76763 0,-19.76801 -16.01247,-35.76761 -35.78048,-35.76761 z m 170.18236,172.43311 c 1.87777,-2.50798 3.29252,-5.33749 4.15424,-8.34707 l 30.46871,-106.00386 c 1.89064,-6.58505 1.06751,-13.65883 -2.26361,-19.63939 L 668.24886,333.8331 c 38.5457,-196.92127 5.14458,-215.0816 -7.53679,-221.98819 -5.80051,-3.15105 -12.39842,-4.75873 -19.61367,-4.75873 -40.79644,0 -116.65312,62.90523 -156.18915,98.36418 l -83.38061,-19.02204 c -3.76838,-0.86172 -7.67827,-0.86172 -11.44667,0 l -83.38061,19.02204 c -39.52315,-35.47181 -115.37983,-98.36418 -156.18913,-98.36418 -7.21527,0 -13.81318,1.60768 -19.61367,4.75873 -12.69424,6.90659 -46.082483,25.06692 -7.5368,221.98819 l -54.661053,97.86257 c -3.34397,5.98056 -4.15423,13.05434 -2.26361,19.63939 l 30.468714,106.00386 c 0.86172,3.00958 2.27648,5.83909 4.154249,8.34707 17.40149,23.202 173.6678,226.65687 294.73239,226.65687 121.06459,0 277.33089,-203.45487 294.75812,-226.65687 z m -571.72889,-118.2608 54.05656,-96.78221 c 2.98385,-5.36322 3.97418,-11.60101 2.75235,-17.62016 -14.63631,-72.70562 -21.82584,-145.89999 -17.5687,-172.49742 23.18914,9.14448 76.53833,48.41041 123.82978,91.90773 6.23779,5.7362 14.91926,8.0384 23.13771,6.14777 l 90.76307,-20.69403 90.75021,20.70689 c 8.23132,1.8649 16.88705,-0.41156 23.1377,-6.14776 47.33005,-43.52306 100.70496,-82.80184 123.82979,-91.9206 4.28286,26.58457 -2.91954,99.7918 -17.55583,172.51029 -1.20898,6.01914 -0.23151,12.26979 2.75233,17.62014 l 54.05657,96.78223 -26.173,91.0846 c -45.68378,59.77991 -171.51994,202.37451 -250.79777,202.37451 -79.27782,0 -205.114,-142.5946 -250.79777,-202.37451 l -26.173,-91.09747 z" />
  </g>
</svg>
