<?xml version="1.0" encoding="UTF-8" standalone="no"?>
<svg
   xmlns:dc="http://purl.org/dc/elements/1.1/"
   xmlns:cc="http://creativecommons.org/ns#"
   xmlns:rdf="http://www.w3.org/1999/02/22-rdf-syntax-ns#"
   xmlns:svg="http://www.w3.org/2000/svg"
   xmlns="http://www.w3.org/2000/svg"
   xmlns:sodipodi="http://sodipodi.sourceforge.net/DTD/sodipodi-0.dtd"
   xmlns:inkscape="http://www.inkscape.org/namespaces/inkscape"
   version="1.1"
   x="0px"
   y="0px"
   viewBox="0 0 90 90"
   enable-background="new 0 0 100 100"
   xml:space="preserve"
   id="svg2"
   inkscape:version="0.91 r13725"
   sodipodi:docname="noun_baby bottle_850089.svg"
   width="90"
   height="90"><metadata
     id="metadata22"><rdf:RDF><cc:Work
         rdf:about=""><dc:format>image/svg+xml</dc:format><dc:type
           rdf:resource="http://purl.org/dc/dcmitype/StillImage" /><dc:title></dc:title></cc:Work></rdf:RDF></metadata><defs
     id="defs20" /><sodipodi:namedview
     pagecolor="#ffffff"
     bordercolor="#666666"
     borderopacity="1"
     objecttolerance="10"
     gridtolerance="10"
     guidetolerance="10"
     inkscape:pageopacity="0"
     inkscape:pageshadow="2"
     inkscape:window-width="1440"
     inkscape:window-height="772"
     id="namedview18"
     showgrid="false"
     fit-margin-top="0"
     fit-margin-left="0"
     fit-margin-right="0"
     fit-margin-bottom="0"
     inkscape:zoom="2.6700352"
     inkscape:cx="42.710619"
     inkscape:cy="2.1270564"
     inkscape:window-x="0"
     inkscape:window-y="0"
     inkscape:window-maximized="1"
     inkscape:current-layer="g10" /><g
     display="none"
     id="g4"
     style="display:none"
     transform="translate(-5,-5)"><rect
       x="-626.28198"
       y="-301.80899"
       display="inline"
       width="1230"
       height="692.21802"
       id="rect6"
       style="display:inline;fill:#000000" /></g><g
     id="g8"
     transform="translate(-5,-5)"><g
       id="g10"><path
         d="m 83.353,5 c -3.111,0 -6.036,1.211 -8.236,3.411 -2.116,2.116 -3.301,4.892 -3.403,7.793 -2.364,-0.901 -4.884,-1.367 -7.448,-1.367 -3.474,0 -6.818,0.844 -9.799,2.434 L 54.03,16.834 c -1.227,-1.227 -2.86,-1.903 -4.599,-1.903 -1.739,0 -3.372,0.676 -4.599,1.903 l -4.854,4.854 c -1.706,1.706 -2.236,4.125 -1.647,6.302 -0.389,0.278 -0.762,0.582 -1.107,0.926 L 7.532,58.608 c -3.376,3.376 -3.376,8.87 0,12.246 l 21.614,21.614 c 1.633,1.633 3.807,2.532 6.123,2.532 2.316,0 4.49,-0.899 6.123,-2.532 L 71.084,62.775 c 0.338,-0.338 0.637,-0.704 0.91,-1.085 0.554,0.151 1.129,0.235 1.719,0.235 1.738,0 3.372,-0.676 4.599,-1.903 l 4.854,-4.853 c 2.536,-2.536 2.536,-6.662 0,-9.198 l -0.432,-0.432 c 2.842,-5.298 3.258,-11.582 1.069,-17.258 2.943,-0.109 5.693,-1.306 7.785,-3.397 2.2,-2.2 3.411,-5.125 3.411,-8.236 0,-3.111 -1.212,-6.036 -3.411,-8.236 C 89.389,6.212 86.464,5 83.353,5 Z M 67.552,59.243 37.86,88.936 c -0.713,0.712 -1.652,1.069 -2.591,1.069 -0.939,0 -1.878,-0.356 -2.591,-1.069 L 11.064,67.322 c -1.425,-1.425 -1.425,-3.757 0,-5.182 l 5.307,-5.307 6.042,6.042 3.532,-3.533 -6.041,-6.041 4.119,-4.119 6.042,6.042 3.532,-3.533 -6.041,-6.041 4.119,-4.119 6.042,6.042 3.532,-3.533 -6.041,-6.041 5.552,-5.552 c 0.134,-0.134 0.283,-0.243 0.432,-0.352 l 26.716,26.716 c -0.112,0.149 -0.221,0.298 -0.356,0.432 z m 12.083,-7.607 -4.854,4.854 c -0.293,0.293 -0.68,0.44 -1.066,0.44 -0.387,0 -0.773,-0.147 -1.066,-0.44 L 43.511,27.352 c -0.587,-0.587 -0.587,-1.546 0,-2.133 l 4.854,-4.854 c 0.293,-0.293 0.68,-0.44 1.066,-0.44 0.387,0 0.773,0.147 1.066,0.44 l 29.137,29.137 c 0.587,0.587 0.587,1.547 0.001,2.134 z m 8.421,-30.285 c -1.297,1.297 -2.995,1.942 -4.695,1.942 -0.51,0 -1.019,-0.058 -1.518,-0.174 l -4.126,4.126 c 2.77,4.384 3.18,9.821 1.248,14.524 L 58.223,21.027 c 1.931,-0.794 3.986,-1.194 6.043,-1.194 2.951,0 5.904,0.817 8.489,2.45 l 4.126,-4.126 c -0.502,-2.163 0.082,-4.527 1.768,-6.213 1.299,-1.299 3.001,-1.948 4.703,-1.948 1.702,0 3.405,0.65 4.704,1.948 2.598,2.597 2.598,6.809 0,9.407 z"
         id="path12"
         style="fill:#ffffff"
         inkscape:connector-curvature="0" /></g></g></svg>