<?xml version="1.0" encoding="UTF-8" standalone="no"?>
<svg
   xmlns:serif="http://www.serif.com/"
   xmlns:dc="http://purl.org/dc/elements/1.1/"
   xmlns:cc="http://creativecommons.org/ns#"
   xmlns:rdf="http://www.w3.org/1999/02/22-rdf-syntax-ns#"
   xmlns:svg="http://www.w3.org/2000/svg"
   xmlns="http://www.w3.org/2000/svg"
   xmlns:sodipodi="http://sodipodi.sourceforge.net/DTD/sodipodi-0.dtd"
   xmlns:inkscape="http://www.inkscape.org/namespaces/inkscape"
   width="100%"
   height="100%"
   viewBox="0 0 3000 3000"
   version="1.1"
   xml:space="preserve"
   style="fill-rule:evenodd;clip-rule:evenodd;stroke-linecap:round;stroke-linejoin:round;stroke-miterlimit:1.5;"
   id="svg2"
   inkscape:version="0.91 r13725"
   sodipodi:docname="logo.svg"><metadata
     id="metadata63"><rdf:RDF><cc:Work
         rdf:about=""><dc:format>image/svg+xml</dc:format><dc:type
           rdf:resource="http://purl.org/dc/dcmitype/StillImage" /><dc:title /></cc:Work></rdf:RDF></metadata><defs
     id="defs61" /><sodipodi:namedview
     pagecolor="#ffffff"
     bordercolor="#666666"
     borderopacity="1"
     objecttolerance="10"
     gridtolerance="10"
     guidetolerance="10"
     inkscape:pageopacity="0"
     inkscape:pageshadow="2"
     inkscape:window-width="1440"
     inkscape:window-height="772"
     id="namedview59"
     showgrid="false"
     inkscape:zoom="0.11313708"
     inkscape:cx="51.231314"
     inkscape:cy="845.58249"
     inkscape:window-x="0"
     inkscape:window-y="0"
     inkscape:window-maximized="1"
     inkscape:current-layer="svg2" /><g
     id="Bébé2--Grouper-"
     serif:id="Bébé2 (Grouper)"
     transform="matrix(0.64099842,0,0,0.64099842,572.60532,-191.69381)"><g
       transform="matrix(2.23748,0,0,2.23748,-1725.05,386.704)"
       id="g8"
       style="fill:#ef2929" /><g
       transform="matrix(1.64898,-1.60719,1.93051,1.9807,-1747.09,3151.63)"
       id="g12" /><g
       id="oreille-gauche"
       serif:id="oreille gauche"
       transform="matrix(1.38827,1.05785,-1.05785,1.38827,725.879,135.632)"
       style="fill:#ef2929" /><g
       id="oreille-droite"
       serif:id="oreille droite"
       transform="matrix(-1.07941,-1.37157,1.37157,-1.07941,1495.02,5969.39)"
       style="fill:#ef2929" /><g
       id="oeil-gauche"
       serif:id="oeil gauche"
       transform="matrix(-0.841962,0.841962,-0.868013,-0.868013,2806.12,4395.7)"
       style="fill:#ef2929" /><g
       id="oeil-droit"
       serif:id="oeil droit"
       transform="matrix(-0.841962,0.841962,-0.868013,-0.868013,4252.19,4395.7)"
       style="fill:#464855;fill-opacity:1;stroke:#464855;stroke-width:105.95601654;stroke-linecap:round;stroke-linejoin:round;stroke-miterlimit:1.5;stroke-dasharray:none"><path
         id="path26"
         style="fill:#464855;fill-opacity:1;stroke:#464855;stroke-width:105.95601654;stroke-linecap:round;stroke-linejoin:round;stroke-miterlimit:1.5;stroke-dasharray:none;stroke-opacity:1"
         d="M 386.946,1570.37 C 355.644,1619.02 339,1675.65 339,1733.5 c 0,166.4 135.098,301.5 301.5,301.5 57.852,0 114.482,-16.64 163.133,-47.95 l -40.783,-63.38 c -36.489,23.47 -78.961,35.95 -122.35,35.95 -124.802,0 -226.125,-101.32 -226.125,-226.12 0,-43.39 12.483,-85.86 35.959,-122.35 l -63.388,-40.78 z m 858.7502,832.9772 c -31.302,48.65 -47.946,105.28 -47.946,163.13 0,166.4 135.098,301.5 301.5,301.5 57.852,0 114.482,-16.64 163.133,-47.95 l -40.783,-63.38 c -36.489,23.47 -78.961,35.95 -122.35,35.95 -124.802,0 -226.125,-101.32 -226.125,-226.12 0,-43.39 12.483,-85.86 35.959,-122.35 l -63.388,-40.78 z M -322.01594,3501.47 c 301.268087,292.2264 709.93746,456.4225 1135.99481,456.4225 350.12413,0 688.48543,-110.9066 965.16993,-312.6047 74.2916,31.6215 156.1903,42.8362 236.7243,32.2843 241.7177,-31.6712 411.4617,-247.7436 378.8103,-482.2098 -10.6873,-76.744 -42.5942,-149.1492 -92.2119,-209.5946 77.2036,-184.4459 118.0417,-383.2804 118.0417,-586.1938 -10e-5,-413.2704 -169.2765,-809.6748 -470.5446,-1101.9011 -301.2681,-292.2264 -709.935,-456.42 -1135.99242,-456.42013 -209.40798,0 -414.60602,39.691 -604.92546,114.72801 C 145.63358,908.10185 69.887547,877.8405 -10.070433,868.59555 -252.26844,840.59175 -472.34744,1008.5888 -501.21824,1243.5207 c -9.1403,74.3789 1.9862,149.6474 32.0868,218.3548 -208.67,268.6551 -323.4266,597.451 -323.4266,937.6958 10e-5,413.2705 169.274,809.6724 470.5421,1101.8987 z m 82.7498,-80.2663 c -279.3531,-270.9692 -436.2675,-638.4216 -436.2675,-1021.6298 0,-383.2083 156.9116,-750.663 436.265,-1021.6324 279.352747,-270.9688 658.17978,-423.17402 1053.24496,-423.17402 395.06508,-1.3e-4 773.88928,152.20242 1053.24248,423.17162 279.3532,270.9691 436.2674,638.4264 436.2674,1021.6348 0,383.2083 -156.9172,750.6634 -436.27,1021.6322 -279.3534,270.9693 -658.1749,423.1742 -1053.23993,423.1742 -287.76611,-10e-5 -566.9015,-80.778 -805.2679626,-229.3654 C 186.89119,3572.9988 321.84581,3399.5953 324.61401,3190.353 327.82396,2947.7174 152.08298,2748.805 -67.911713,2746.0664 l -0.75264,56.7497 c 191.569623,2.3848 344.619073,175.605 341.823803,386.895 -2.71563,205.2732 -151.52954,370.9457 -335.668043,378.0291 -62.375697,-44.036 -121.517347,-92.9543 -176.757547,-146.5365 z m 2119.13894,144.286 c 23.9497,-20.6018 47.3308,-41.938 70.0932,-64.0173 122.0962,-118.4318 222.5088,-253.979 298.7646,-400.8206 18.6965,33.781 31.1095,70.6966 36.4519,109.0591 24.4886,175.8504 -102.8083,337.9033 -284.0967,361.6567 -40.6241,5.3227 -81.7105,3.2538 -121.213,-5.8779 z M -386.04424,1363.5301 c -7.9692,-35.0509 -9.8787,-71.3256 -5.4551,-107.3222 21.6531,-176.1996 186.7058,-302.1993 368.354457,-281.19641 39.58622,4.5771 77.79255,16.01954 112.87463,33.59571 -150.81733,73.8786 -290.049487,171.0215 -411.748287,289.0679 -22.0614,21.3993 -43.3947,43.3729 -64.0257,65.855 z m 2016.44884,788.3523 c 71.4059,-155.8995 36.4603,-338.3494 -87.8955,-458.973 -124.3558,-120.6236 -312.4508,-154.5204 -473.174,-85.2575 l 561.0695,544.2305 z"
         inkscape:connector-curvature="0" /></g><g
       id="bouche"
       transform="matrix(0.841962,-0.841962,0.868013,0.868013,-561.154,2895.03)"
       style="fill:#ef2929" /></g></svg>