<?xml version="1.0" encoding="UTF-8" standalone="no"?>
<!-- Created with Inkscape (http://www.inkscape.org/) -->

<svg
   xmlns:dc="http://purl.org/dc/elements/1.1/"
   xmlns:cc="http://creativecommons.org/ns#"
   xmlns:rdf="http://www.w3.org/1999/02/22-rdf-syntax-ns#"
   xmlns:svg="http://www.w3.org/2000/svg"
   xmlns="http://www.w3.org/2000/svg"
   xmlns:sodipodi="http://sodipodi.sourceforge.net/DTD/sodipodi-0.dtd"
   xmlns:inkscape="http://www.inkscape.org/namespaces/inkscape"
   width="176.10384mm"
   height="185.33748mm"
   viewBox="0 0 623.98997 656.7076"
   id="svg3350"
   version="1.1"
   inkscape:version="0.91 r13725"
   sodipodi:docname="moon-white.svg">
  <defs
     id="defs3352" />
  <sodipodi:namedview
     id="base"
     pagecolor="#ffffff"
     bordercolor="#666666"
     borderopacity="1.0"
     inkscape:pageopacity="0.0"
     inkscape:pageshadow="2"
     inkscape:zoom="0.45254834"
     inkscape:cx="-176.27699"
     inkscape:cy="333.3354"
     inkscape:document-units="px"
     inkscape:current-layer="layer1"
     showgrid="false"
     showguides="false"
     inkscape:window-width="1444"
     inkscape:window-height="781"
     inkscape:window-x="0"
     inkscape:window-y="0"
     inkscape:window-maximized="0"
     fit-margin-top="0"
     fit-margin-left="0"
     fit-margin-right="0"
     fit-margin-bottom="0" />
  <metadata
     id="metadata3355">
    <rdf:RDF>
      <cc:Work
         rdf:about="">
        <dc:format>image/svg+xml</dc:format>
        <dc:type
           rdf:resource="http://purl.org/dc/dcmitype/StillImage" />
        <dc:title />
      </cc:Work>
    </rdf:RDF>
  </metadata>
  <g
     inkscape:label="Calque 1"
     inkscape:groupmode="layer"
     id="layer1"
     transform="translate(-53.616252,-88.319446)">
    <path
       style="fill:#ffffff;fill-opacity:1"
       d="M 528.74818,710.31008 C 401.25759,774.193 246.34411,748.23236 146.61897,646.27226 125.2654,624.44013 119.31967,616.4785 99.80612,583.58752 84.182179,557.25269 81.212488,551.5582 76.071475,538.07586 50.190569,470.20311 46.615835,398.21709 65.688412,328.9877 89.841629,241.31669 152.48088,164.52151 232.59105,124.36651 c 39.93594,-20.01778 76.95534,-30.626556 120.51722,-34.537038 42.50481,-3.815642 55.46572,-0.900337 64.598,14.529808 7.61831,12.8727 5.65881,26.49145 -5.85093,40.65854 -139.84973,277.45229 93.83199,393.4109 218.81095,376.15806 12.79063,-2.06074 17.85308,-2.23699 23.43529,-0.81587 17.05628,4.34203 27.1499,22.14932 22.27829,39.30362 -2.25361,7.93548 -17.46778,34.17452 -28.48138,49.12023 -23.94787,32.49774 -47.98088,55.97975 -80.29327,78.45228 -16.2806,11.32279 -21.00952,14.13092 -38.8568,23.07434 z m 69.23715,-259.32721 c -2.18521,0.58492 -6.12732,0.31315 -8.76018,-0.60395 -4.53944,-1.58111 -5.0927,-2.21685 -10.69253,-12.28677 l -5.90538,-10.61939 -9.06833,-2.75606 c -9.21703,-2.80117 -13.35819,-5.9232 -14.93444,-11.25908 -2.20753,-7.47293 0.44339,-13.50325 8.94102,-20.33878 5.73307,-4.61172 7.70871,-9.56773 7.14902,-17.93406 -0.58544,-8.75091 0.79275,-12.53137 6.00911,-16.48339 6.48676,-4.91451 11.973,-4.79234 19.8857,0.44297 8.03472,5.31598 12.23999,5.79356 21.33964,2.42367 8.74537,-3.23868 14.2905,-2.9066 18.93575,1.1341 5.36686,4.66828 6.37486,9.47475 4.10327,19.56612 l -2.047,9.09389 6.55611,9.43937 c 5.83884,8.40661 6.54726,9.97124 6.47498,14.3006 -0.0792,4.73578 -3.70415,11.20205 -7.56443,13.49339 -1.05357,0.62539 -5.84317,1.50831 -10.6435,1.96203 -10.52316,0.99465 -12.91425,2.28809 -17.54325,9.48979 -4.61371,7.17791 -7.35699,9.62974 -12.23556,10.93555 z M 510.45757,338.65648 c -6.41457,1.62727 -12.36261,0.78054 -17.56101,-2.49986 -5.31454,-3.35373 -7.55795,-6.51296 -13.14091,-18.50551 -2.22673,-4.78327 -5.13414,-9.78966 -6.46085,-11.12534 -1.32672,-1.33569 -7.87168,-4.04 -14.54427,-6.00965 -13.32427,-3.93307 -18.22788,-7.31288 -21.66685,-14.93413 -4.73576,-10.49525 -1.34174,-20.92031 9.72795,-29.87994 7.60218,-6.1531 12.12096,-12.08574 13.0275,-17.10361 0.30044,-1.66309 0.27914,-7.67676 -0.0473,-13.36373 -0.78102,-13.60429 1.85585,-19.4901 11.22568,-25.05736 9.36992,-5.56731 15.80011,-5.06886 27.37496,2.12208 14.14628,8.7883 16.87621,9.06651 32.15982,3.27737 11.70969,-4.43541 18.81235,-4.36838 25.79309,0.2436 9.70936,6.41461 12.94901,17.3789 8.8991,30.11842 -4.27224,13.43914 -2.59147,20.27002 7.9141,32.16284 9.11287,10.31628 9.23312,24.23094 0.2863,33.13132 -5.1426,5.1159 -8.07031,6.10817 -20.7556,7.03454 -13.28977,0.97048 -18.74217,4.23374 -25.76938,15.42301 -5.97043,9.50645 -10.23923,13.38724 -16.46234,14.96595 z"
       id="path3462"
       inkscape:connector-curvature="0"
       sodipodi:nodetypes="csssssssccssssccssscssssssssscsscssscsssssssssssssssssc" />
  </g>
</svg>
