<?xml version="1.0" encoding="UTF-8" standalone="no"?>
<svg
   xmlns:dc="http://purl.org/dc/elements/1.1/"
   xmlns:cc="http://creativecommons.org/ns#"
   xmlns:rdf="http://www.w3.org/1999/02/22-rdf-syntax-ns#"
   xmlns:svg="http://www.w3.org/2000/svg"
   xmlns="http://www.w3.org/2000/svg"
   xmlns:sodipodi="http://sodipodi.sourceforge.net/DTD/sodipodi-0.dtd"
   xmlns:inkscape="http://www.inkscape.org/namespaces/inkscape"
   version="1.1"
   x="0px"
   y="0px"
   viewBox="0 0 90 71.995003"
   enable-background="new 0 0 100 100"
   xml:space="preserve"
   id="svg2"
   inkscape:version="0.91 r13725"
   sodipodi:docname="diaper.svg"
   width="90"
   height="71.995003"><metadata
     id="metadata22"><rdf:RDF><cc:Work
         rdf:about=""><dc:format>image/svg+xml</dc:format><dc:type
           rdf:resource="http://purl.org/dc/dcmitype/StillImage" /><dc:title /></cc:Work></rdf:RDF></metadata><defs
     id="defs20" /><sodipodi:namedview
     pagecolor="#ffffff"
     bordercolor="#666666"
     borderopacity="1"
     objecttolerance="10"
     gridtolerance="10"
     guidetolerance="10"
     inkscape:pageopacity="0"
     inkscape:pageshadow="2"
     inkscape:window-width="1440"
     inkscape:window-height="776"
     id="namedview18"
     showgrid="false"
     fit-margin-top="0"
     fit-margin-left="0"
     fit-margin-right="0"
     fit-margin-bottom="0"
     inkscape:zoom="1.888"
     inkscape:cx="89.361125"
     inkscape:cy="23.497"
     inkscape:window-x="0"
     inkscape:window-y="0"
     inkscape:window-maximized="1"
     inkscape:current-layer="g10" /><g
     display="none"
     id="g4"
     style="display:none"
     transform="translate(-5,-14.002)"><rect
       x="-386.28201"
       y="-301.80899"
       display="inline"
       width="1230"
       height="692.21802"
       id="rect6"
       style="display:inline;fill:#000000" /></g><g
     id="g8"
     transform="translate(-5,-14.002)"><g
       id="g10"><path
         d="m 86.806,15.179 c -0.503,-0.71 -1.33,-1.177 -2.264,-1.177 -0.205,0 -0.409,0.023 -0.609,0.068 -5.267,1.192 -10.903,2.093 -16.736,2.693 -5.6,0.577 -11.38,0.877 -17.197,0.877 -5.816,0 -11.596,-0.3 -17.196,-0.877 -5.832,-0.601 -11.469,-1.502 -16.736,-2.693 -0.2,-0.045 -0.405,-0.068 -0.609,-0.068 l -0.023,0 c -0.933,0 -1.749,0.465 -2.245,1.173 L 13.182,15.169 C 7.829,22.734 5,31.664 5,40.997 c 0,0.368 0.002,0.736 0.025,1.104 0.494,20.795 15.006,38.412 35.298,42.85 3.099,0.694 6.354,1.046 9.676,1.046 3.322,0 6.578,-0.352 9.663,-1.043 C 79.968,80.512 94.48,62.896 94.974,42.101 94.998,41.733 95,41.366 95,40.997 95,31.665 92.172,22.733 86.82,15.169 l -0.014,0.01 z M 16.719,19.85 c 5.216,1.1 10.736,1.936 16.433,2.492 l -8.658,24.65 C 20.349,44.051 15.654,41.791 10.546,40.391 10.657,33.027 12.785,25.98 16.719,19.85 Z M 10.743,45.046 C 25.881,49.778 36.744,62.981 38.482,78.764 23.256,74.157 12.342,60.891 10.743,45.046 Z M 56.985,79.848 C 52.46,80.662 47.557,80.664 43.014,79.847 42.127,67.989 36.621,57.33 28.105,49.84 c 0.073,-0.123 0.155,-0.238 0.204,-0.378 l 9.185,-26.15 c 0.069,-0.197 0.099,-0.398 0.111,-0.597 4.085,0.29 8.23,0.449 12.395,0.449 4.101,0 8.183,-0.155 12.207,-0.436 0.019,0.083 0.031,0.166 0.06,0.248 l 3.04,8.655 -7.572,7.573 c -10e-4,10e-4 -0.002,10e-4 -0.003,0.002 -10e-4,10e-4 -10e-4,0.002 -0.002,0.003 l -0.226,0.226 c -0.532,0.532 -0.919,1.165 -1.174,1.851 -1.087,2.487 -0.63,5.491 1.402,7.523 1.324,1.324 3.063,1.985 4.801,1.985 0.927,0 1.848,-0.202 2.712,-0.578 0.678,-0.251 1.317,-0.635 1.861,-1.179 l 0.229,-0.229 0,0 0,0 2.965,-2.965 1.153,3.282 c 0.097,0.277 0.256,0.509 0.439,0.716 -8.515,7.491 -14.021,18.15 -14.907,30.007 z M 74.56,37.924 69.246,43.238 c -0.167,-1.473 -0.784,-2.905 -1.912,-4.032 -1.128,-1.127 -2.559,-1.745 -4.032,-1.912 l 5.34,-5.34 c 0.167,1.473 0.784,2.905 1.912,4.032 1.093,1.093 2.494,1.763 4.006,1.938 z m -2.177,-9.711 c 0.82,-0.82 1.896,-1.229 2.972,-1.229 1.077,0 2.153,0.41 2.972,1.229 0.794,0.794 1.231,1.849 1.231,2.972 0,1.123 -0.437,2.179 -1.231,2.972 l -0.001,0.001 c -1.587,1.587 -4.356,1.587 -5.944,-0.001 -1.638,-1.639 -1.637,-4.305 10e-4,-5.944 z m -6.878,18.766 c -1.639,1.64 -4.305,1.64 -5.944,0 -1.639,-1.639 -1.639,-4.305 0,-5.944 0.819,-0.82 1.895,-1.229 2.972,-1.229 1.077,0 2.153,0.409 2.972,1.229 1.639,1.639 1.639,4.306 0,5.944 z M 61.517,78.764 C 63.255,62.981 74.118,49.778 89.257,45.046 87.658,60.887 76.748,74.152 61.517,78.764 Z M 75.41,47.059 73.766,42.378 80.45,35.694 c 0.6,-0.6 0.999,-1.318 1.242,-2.075 0.294,-0.767 0.454,-1.588 0.454,-2.434 0,-1.813 -0.707,-3.519 -1.989,-4.801 -1.788,-1.788 -4.328,-2.338 -6.609,-1.709 -1.019,0.189 -1.956,0.672 -2.701,1.417 l -0.292,0.292 0,0 0,0 -1.781,1.781 -2.042,-5.812 c 5.738,-0.555 11.299,-1.395 16.55,-2.502 3.934,6.13 6.061,13.177 6.172,20.54 -5.147,1.41 -9.876,3.693 -14.044,6.668 z"
         id="path12"
         style="fill:#6967ce;fill-opacity:1"
         inkscape:connector-curvature="0" /></g></g></svg>
