<?xml version="1.0" encoding="UTF-8" standalone="no"?>
<svg
   xmlns:dc="http://purl.org/dc/elements/1.1/"
   xmlns:cc="http://creativecommons.org/ns#"
   xmlns:rdf="http://www.w3.org/1999/02/22-rdf-syntax-ns#"
   xmlns:svg="http://www.w3.org/2000/svg"
   xmlns="http://www.w3.org/2000/svg"
   xmlns:sodipodi="http://sodipodi.sourceforge.net/DTD/sodipodi-0.dtd"
   xmlns:inkscape="http://www.inkscape.org/namespaces/inkscape"
   version="1.1"
   x="0px"
   y="0px"
   viewBox="0 0 90 66.795631"
   enable-background="new 0 0 100 100"
   xml:space="preserve"
   id="svg2"
   inkscape:version="0.91 r13725"
   sodipodi:docname="noun_Baby_850072.svg"
   width="90"
   height="66.795631"><metadata
     id="metadata30"><rdf:RDF><cc:Work
         rdf:about=""><dc:format>image/svg+xml</dc:format><dc:type
           rdf:resource="http://purl.org/dc/dcmitype/StillImage" /><dc:title></dc:title></cc:Work></rdf:RDF></metadata><defs
     id="defs28" /><sodipodi:namedview
     pagecolor="#ffffff"
     bordercolor="#666666"
     borderopacity="1"
     objecttolerance="10"
     gridtolerance="10"
     guidetolerance="10"
     inkscape:pageopacity="0"
     inkscape:pageshadow="2"
     inkscape:window-width="1440"
     inkscape:window-height="769"
     id="namedview26"
     showgrid="false"
     fit-margin-top="0"
     fit-margin-left="0"
     fit-margin-right="0"
     fit-margin-bottom="0"
     inkscape:zoom="1.3350176"
     inkscape:cx="-229.9359"
     inkscape:cy="-21.106729"
     inkscape:window-x="0"
     inkscape:window-y="0"
     inkscape:window-maximized="1"
     inkscape:current-layer="g8" /><g
     display="none"
     id="g4"
     style="display:none"
     transform="translate(-5,-16.602368)"><rect
       x="-386.28201"
       y="-61.808998"
       display="inline"
       width="1230"
       height="692.21802"
       id="rect6"
       style="display:inline;fill:#000000" /></g><g
     id="g8"
     transform="translate(-5,-16.602368)"><g
       id="g10"><path
         d="m 19.791,70.378 c 1.208,0 2.377,-0.162 3.501,-0.436 6.07,8.159 15.781,13.456 26.708,13.456 10.927,0 20.638,-5.297 26.707,-13.455 1.125,0.275 2.293,0.436 3.501,0.436 C 88.364,70.378 95,63.743 95,55.587 95,48.024 89.292,41.779 81.96,40.908 80.322,35.238 77.215,30.189 73.076,26.197 c 1.843,-1.746 3.444,-3.718 4.732,-5.878 0.695,-1.166 0.314,-2.674 -0.852,-3.369 -1.167,-0.696 -2.675,-0.314 -3.369,0.852 -1.146,1.922 -2.632,3.669 -4.351,5.208 C 63.8,19.143 57.164,16.859 50,16.859 34.855,16.859 22.049,27.037 18.04,40.908 10.708,41.779 5,48.024 5,55.587 c 0,8.156 6.636,14.791 14.791,14.791 z m 63.478,-20.25 c 0,-0.905 -0.047,-1.8 -0.118,-2.687 3.334,1.209 5.728,4.399 5.728,8.146 0,4.781 -3.889,8.67 -8.67,8.67 -0.032,0 -0.063,-0.004 -0.095,-0.005 2.02,-4.29 3.155,-9.076 3.155,-14.124 z M 50,22.98 c 5.03,0 9.741,1.38 13.784,3.773 -3.641,1.885 -7.75,2.989 -11.873,3.033 -4.484,0.062 -9.679,-1.469 -11.816,-4.928 3.071,-1.207 6.41,-1.878 9.905,-1.878 z m -14.315,4.095 c 3.17,5.612 10.416,7.627 16.031,7.627 0.083,0 0.166,-10e-4 0.248,-0.002 5.772,-0.061 11.415,-1.786 16.19,-4.738 5.518,4.973 8.994,12.17 8.994,20.165 0,14.97 -12.179,27.148 -27.148,27.148 -14.969,0 -27.148,-12.177 -27.148,-27.147 0,-9.718 5.136,-18.256 12.833,-23.053 z M 16.849,47.441 c -0.071,0.887 -0.118,1.782 -0.118,2.687 0,5.048 1.136,9.834 3.156,14.124 -0.032,0 -0.063,0.005 -0.095,0.005 -4.781,0 -8.67,-3.889 -8.67,-8.67 -10e-4,-3.747 2.392,-6.937 5.727,-8.146 z"
         id="path12"
         style="fill:#888888;fill-opacity:1"
         inkscape:connector-curvature="0" /><path
         d="m 50,68.725 c 1.864,0 3.381,-1.517 3.381,-3.381 0,-1.864 -1.517,-3.381 -3.381,-3.381 -1.864,0 -3.381,1.517 -3.381,3.381 0,1.864 1.517,3.381 3.381,3.381 z"
         id="path16"
         inkscape:connector-curvature="0"
         style="fill:#888888;fill-opacity:1" /><g
         id="g4315"
         transform="translate(-0.27613517,0)"><path
           sodipodi:nodetypes="cc"
           inkscape:connector-curvature="0"
           id="path4311"
           d="m 30.159772,48.834449 c 2.755727,4.773059 11.505886,4.474158 14.232022,0"
           style="fill:none;fill-rule:evenodd;stroke:#888888;stroke-width:4.9000001;stroke-linecap:round;stroke-linejoin:round;stroke-miterlimit:4;stroke-dasharray:none;stroke-opacity:1" /><path
           style="fill:none;fill-rule:evenodd;stroke:#888888;stroke-width:4.9000001;stroke-linecap:round;stroke-linejoin:round;stroke-miterlimit:4;stroke-dasharray:none;stroke-opacity:1"
           d="m 56.159772,48.834449 c 2.755727,4.773059 11.505886,4.474158 14.232022,0"
           id="path4313"
           inkscape:connector-curvature="0"
           sodipodi:nodetypes="cc" /></g></g></g><g
     id="g3482"
     transform="translate(90.007689,34.496019)"><g
       id="g3456"
       display="none"
       style="display:none"><rect
         id="rect3458"
         height="692.21802"
         width="1230"
         display="inline"
         y="-61.808998"
         x="-866.28198"
         style="display:inline;fill:#000000" /></g></g></svg>