<?xml version="1.0" encoding="UTF-8" standalone="no"?>
<svg
   xmlns:dc="http://purl.org/dc/elements/1.1/"
   xmlns:cc="http://creativecommons.org/ns#"
   xmlns:rdf="http://www.w3.org/1999/02/22-rdf-syntax-ns#"
   xmlns:svg="http://www.w3.org/2000/svg"
   xmlns="http://www.w3.org/2000/svg"
   xmlns:xlink="http://www.w3.org/1999/xlink"
   xmlns:sodipodi="http://sodipodi.sourceforge.net/DTD/sodipodi-0.dtd"
   xmlns:inkscape="http://www.inkscape.org/namespaces/inkscape"
   version="1.1"
   x="0px"
   y="0px"
   viewBox="0 0 51.373241 53.279999"
   enable-background="new 0 0 100 100"
   xml:space="preserve"
   id="svg2"
   inkscape:version="0.91 r13725"
   sodipodi:docname="wolf.svg"
   width="51.373241"
   height="53.279999"><metadata
     id="metadata14"><rdf:RDF><cc:Work
         rdf:about=""><dc:format>image/svg+xml</dc:format><dc:type
           rdf:resource="http://purl.org/dc/dcmitype/StillImage" /><dc:title></dc:title></cc:Work></rdf:RDF></metadata><defs
     id="defs12"><linearGradient
       inkscape:collect="always"
       id="linearGradient4142"><stop
         style="stop-color:#85a6f3;stop-opacity:1"
         offset="0"
         id="stop4144" /><stop
         style="stop-color:#d7b9f1;stop-opacity:1"
         offset="1"
         id="stop4146" /></linearGradient><linearGradient
       inkscape:collect="always"
       xlink:href="#linearGradient4142"
       id="linearGradient4148"
       x1="24.314259"
       y1="50"
       x2="75.6875"
       y2="50"
       gradientUnits="userSpaceOnUse"
       gradientTransform="translate(-24.314258,-23.36)" /></defs><sodipodi:namedview
     pagecolor="#ffffff"
     bordercolor="#666666"
     borderopacity="1"
     objecttolerance="10"
     gridtolerance="10"
     guidetolerance="10"
     inkscape:pageopacity="0"
     inkscape:pageshadow="2"
     inkscape:window-width="1446"
     inkscape:window-height="784"
     id="namedview10"
     showgrid="false"
     inkscape:zoom="7.552"
     inkscape:cx="24.876461"
     inkscape:cy="39.154688"
     inkscape:window-x="0"
     inkscape:window-y="0"
     inkscape:window-maximized="0"
     inkscape:current-layer="svg2"
     fit-margin-top="0"
     fit-margin-left="0"
     fit-margin-right="0"
     fit-margin-bottom="0" /><path
     d="m 29.418742,42.729 c 0,2.062 -1.67,3.734 -3.733,3.734 -2.062,0 -3.732,-1.671 -3.732,-3.734 0,-2.062 1.671,-3.732 3.732,-3.732 2.062,0 3.733,1.67 3.733,3.732 z m -13.419,-20.479 c -1.537,0 -2.781,1.245 -2.781,2.781 0,1.537 1.245,2.781 2.781,2.781 1.538,0 2.78,-1.244 2.78,-2.781 0,-1.537 -1.242,-2.781 -2.78,-2.781 z m 19.372,0 c -1.537,0 -2.78,1.245 -2.78,2.781 0,1.537 1.243,2.781 2.78,2.781 1.537,0 2.782,-1.244 2.782,-2.781 0,-1.537 -1.245,-2.781 -2.782,-2.781 z m 13.232,13.407 c 0.146,-0.195 0.256,-0.415 0.323,-0.649 l 2.369,-8.242 c 0.147,-0.512 0.083,-1.062 -0.176,-1.527 l -4.25,-7.609 c 2.997,-15.311 0.4,-16.723 -0.586,-17.26 -0.451,-0.245 -0.964,-0.37 -1.525,-0.37 -3.172,0 -9.07,4.891 -12.144,7.648 l -6.483,-1.479 c -0.293,-0.067 -0.597,-0.067 -0.89,0 l -6.483,1.479 C 15.685742,4.89 9.7877416,0 6.6147416,0 c -0.561,0 -1.074,0.125 -1.525,0.37 -0.987,0.537 -3.583,1.949 -0.586,17.26 l -4.24999997,7.609 c -0.26,0.465 -0.323,1.015 -0.176,1.527 l 2.36899997,8.242 c 0.067,0.234 0.177,0.454 0.323,0.649 1.353,1.804 13.5030004,17.623 22.9160004,17.623 9.413,0 21.563,-15.819 22.918,-17.623 z m -44.4530004,-9.195 4.203,-7.525 c 0.232,-0.417 0.309,-0.902 0.214,-1.37 -1.138,-5.653 -1.697,-11.344 -1.366,-13.412 1.803,0.711 5.9510004,3.764 9.6280004,7.146 0.485,0.446 1.16,0.625 1.799,0.478 l 7.057,-1.609 7.056,1.61 c 0.64,0.145 1.313,-0.032 1.799,-0.478 3.68,-3.384 7.83,-6.438 9.628,-7.147 0.333,2.067 -0.227,7.759 -1.365,13.413 -0.094,0.468 -0.018,0.954 0.214,1.37 l 4.203,7.525 -2.035,7.082 c -3.552,4.648 -13.336,15.735 -19.5,15.735 -6.164,0 -15.9480004,-11.087 -19.5000004,-15.735 l -2.035,-7.083 z"
     id="path4"
     style="fill:url(#linearGradient4148);fill-opacity:1;stroke:none"
     inkscape:connector-curvature="0" /></svg>